<svg width="92" height="92" viewBox="0 0 92 92" fill="none" xmlns="http://www.w3.org/2000/svg">
<path d="M0 10.2222V81.7778C0 87.4 4.54889 92 10.2222 92H81.7778C87.4 92 92 87.4 92 81.7778V10.2222C92 4.6 87.4 0 81.7778 0H10.2222C4.54889 0 0 4.6 0 10.2222ZM61.3333 30.6667C61.3333 39.1511 54.4844 46 46 46C37.5156 46 30.6667 39.1511 30.6667 30.6667C30.6667 22.1822 37.5156 15.3333 46 15.3333C54.4844 15.3333 61.3333 22.1822 61.3333 30.6667ZM15.3333 71.5556C15.3333 61.3333 35.7778 55.7111 46 55.7111C56.2222 55.7111 76.6667 61.3333 76.6667 71.5556V76.6667H15.3333V71.5556Z" fill="black"/>
</svg>
